<?xml version="1.0" encoding="utf-8"?>
<!-- Generator: Adobe Illustrator 18.1.1, SVG Export Plug-In . SVG Version: 6.00 Build 0)  -->
<svg version="1.1" id="Layer_1" xmlns="http://www.w3.org/2000/svg" xmlns:xlink="http://www.w3.org/1999/xlink" x="0px" y="0px"
	 viewBox="1 74.1 609.3 628.6" enable-background="new 1 74.1 609.3 628.6" xml:space="preserve">
<g id="tree_1_">
	<g id="trunk_copy__x2B__trunk_copy_2__x2B__leafs_xA0_Image_1_">
	</g>
</g>
<path d="M19.2,591.6H1v-14.9h52.4v14.9H35.1v95.5H19.2V591.6z"/>
<path d="M60.3,576.7h25.5c18.6,0,27.8,10.9,27.8,32.5c0,6.3-1,11.9-3,16.6c-2,4.6-5.6,8.3-10.6,10.9l16.9,50.4h-16.9L85.5,640h-9.3
	v47.1H60.3V576.7z M76.3,626.1h9c2.7,0,5-0.3,6.6-1.3c1.7-0.7,3-2,3.6-3.3c1-1.3,1.3-3.3,1.7-5.3s0.3-4.6,0.3-7.3s0-5.3-0.3-7.3
	c-0.3-2-1-4-2-5.3c-1-1.7-2.3-2.7-4-3.3c-1.7-0.7-4-1-7-1h-8V626.1z"/>
<path d="M243.7,608.5h-15.9v-3.6c0-3.6-1-6.6-2.7-9.3s-4.6-4-8.6-4c-2.3,0-4,0.3-5.3,1.3c-1.3,1-2.3,2-3.3,3.3
	c-0.7,1.3-1.3,2.7-1.7,4.6c-0.3,1.7-0.3,3.6-0.3,5.3c0,2.3,0,4,0.3,5.6c0.3,1.7,0.7,2.7,1.3,4c0.7,1,1.7,2,2.7,3
	c1.3,1,2.7,1.7,5,2.3l12.3,5c3.6,1.3,6.3,3,8.6,4.6c2.3,1.7,4,4,5,6.3c1.3,2.3,2,5.3,2.3,8.3c0.3,3.3,0.7,6.6,0.7,10.9
	c0,4.6-0.3,9-1.3,12.9c-1,4-2.3,7.3-4.6,10.3c-2,3-5,5-8.6,6.6c-3.6,1.7-8,2.3-12.9,2.3c-4,0-7.3-0.7-10.6-2
	c-3.3-1.3-6.3-3.3-8.6-5.6c-2.3-2.3-4.3-5-5.6-8.3c-1.3-3.3-2-6.6-2-10.3v-6h15.9v5c0,3,1,5.6,2.7,8s4.6,3.6,8.6,3.6
	c2.7,0,4.6-0.3,6.3-1.3c1.7-0.7,2.7-2,3.3-3.3c0.7-1.3,1.3-3,1.3-5.3c0.3-2,0.3-4.3,0.3-7c0-3,0-5.3-0.3-7.3c-0.3-2-0.7-3.3-1.3-4.6
	c-0.7-1-1.7-2-2.7-2.7c-1.3-0.7-2.7-1.7-4.6-2.3l-11.3-4.6c-7-2.7-11.3-6.6-13.6-10.9c-2.3-4.6-3.6-10.3-3.6-17.2
	c0-4,0.7-8,1.7-11.9c1-3.6,2.7-7,5-9.6c2.3-2.7,5-5,8.6-6.3c3.3-1.7,7.3-2.3,11.9-2.3c4,0,7.6,0.7,10.9,2.3c3.3,1.3,6,3.3,8.3,5.6
	c2.3,2.3,4,5,5.3,8s2,6,2,9v7.6H243.7z"/>
<path d="M265.9,591.6h-18.2v-14.9H300v14.9h-18.2v95.5h-15.9V591.6z"/>
<path d="M307,576.7h25.5c18.6,0,27.8,10.9,27.8,32.5c0,6.3-1,11.9-3,16.6c-2,4.6-5.6,8.3-10.6,10.9l16.9,50.4h-16.9L332.2,640h-9.6
	v47.1h-15.9V576.7H307z M322.9,626.1h9c2.7,0,5-0.3,6.6-1.3c1.7-0.7,3-2,3.6-3.3c1-1.3,1.3-3.3,1.7-5.3s0.3-4.6,0.3-7.3
	s0-5.3-0.3-7.3c-0.3-2-1-4-2-5.3c-1-1.7-2.3-2.7-4-3.3c-1.7-0.7-4-1-7-1h-8.3v34.1H322.9z"/>
<path d="M372.3,602.9c0-4.3,0.7-8.3,2.3-11.9c1.7-3.3,3.6-6.3,6-8.6c2.7-2.3,5.3-4,8.6-5c3.3-1,6.3-1.7,9.6-1.7s6.3,0.7,9.6,1.7
	s6,3,8.6,5c2.7,2.3,4.6,5,6,8.6c1.7,3.3,2.3,7.3,2.3,11.9v58.3c0,4.6-0.7,8.6-2.3,11.9c-1.7,3.3-3.6,6.3-6,8.3c-2.7,2.3-5.3,4-8.6,5
	c-3.3,1-6.3,1.7-9.6,1.7s-6.3-0.7-9.6-1.7c-3.3-1-6-2.7-8.6-5c-2.7-2.3-4.6-5-6-8.3c-1.7-3.3-2.3-7.3-2.3-11.9V602.9z M387.9,661.2
	c0,4,1,6.6,3.3,8.6s4.6,2.7,7.6,2.7s5.3-1,7.6-2.7c2-1.7,3.3-4.6,3.3-8.6v-58.3c0-4-1-6.6-3.3-8.6c-2-1.7-4.6-2.7-7.6-2.7
	s-5.3,1-7.6,2.7c-2.3,1.7-3.3,4.6-3.3,8.6V661.2z"/>
<path d="M438.3,602.9c0-4.3,0.7-8.3,2.3-11.9c1.7-3.3,3.6-6.3,6-8.6c2.7-2.3,5.3-4,8.6-5s6.3-1.7,9.6-1.7s6.3,0.7,9.6,1.7s6,3,8.6,5
	c2.7,2.3,4.6,5,6,8.6c1.7,3.3,2.3,7.3,2.3,11.9v58.3c0,4.6-0.7,8.6-2.3,11.9c-1.7,3.3-3.6,6.3-6,8.3c-2.7,2.3-5.3,4-8.6,5
	c-3.3,1-6.3,1.7-9.6,1.7s-6.3-0.7-9.6-1.7c-3.3-1-6-2.7-8.6-5s-4.6-5-6-8.3c-1.7-3.3-2.3-7.3-2.3-11.9V602.9z M454.2,661.2
	c0,4,1,6.6,3.3,8.6s4.6,2.7,7.6,2.7c3,0,5.3-1,7.6-2.7c2-1.7,3.3-4.6,3.3-8.6v-58.3c0-4-1-6.6-3.3-8.6c-2-1.7-4.6-2.7-7.6-2.7
	c-3,0-5.3,1-7.6,2.7c-2.3,1.7-3.3,4.6-3.3,8.6V661.2z"/>
<path d="M513.9,591.6h-18.2v-14.9H548v14.9h-18.2v95.5h-15.9V591.6z"/>
<path d="M606,608.5h-15.9v-3.6c0-3.6-1-6.6-2.7-9.3s-4.6-4-8.6-4c-2.3,0-4,0.3-5.3,1.3c-1.3,1-2.3,2-3.3,3.3
	c-0.7,1.3-1.3,2.7-1.7,4.6c-0.3,1.7-0.3,3.6-0.3,5.3c0,2.3,0,4,0.3,5.6c0,1.7,0.7,2.7,1.3,4c0.7,1,1.7,2,2.7,3c1.3,1,2.7,1.7,5,2.3
	l12.3,5c3.6,1.3,6.3,3,8.6,4.6c2.3,1.7,4,4,5,6.3c1.3,2.3,2,5.3,2.3,8.3c0.3,3.3,0.7,6.6,0.7,10.9c0,4.6-0.3,9-1.3,12.9
	c-1,4-2.3,7.3-4.6,10.3c-2,3-5,5-8.6,6.6c-3.6,1.7-8,2.3-12.9,2.3c-4,0-7.3-0.7-10.6-2c-3.3-1.3-6.3-3.3-8.6-5.6s-4.3-5-5.6-8.3
	c-1.3-3.3-2-6.6-2-10.3v-6h15.9v5c0,3,1,5.6,2.7,8c1.7,2.3,4.6,3.6,8.6,3.6c2.7,0,4.6-0.3,6.3-1.3c1.7-1,2.7-2,3.3-3.3
	c0.7-1.3,1.3-3,1.3-5.3c0.3-2,0.3-4.3,0.3-7c0-3,0-5.3-0.3-7.3s-0.7-3.3-1.3-4.6c-0.7-1-1.7-2-2.7-2.7c-1.3-0.7-2.7-1.7-4.6-2.3
	l-11.3-4.6c-7-2.7-11.3-6.6-13.6-10.9s-3.6-10.3-3.6-17.2c0-4,0.7-8,1.7-11.9c1-3.6,2.7-7,5-9.6c2.3-2.7,5-5,8.6-6.3
	c3.3-1.7,7.3-2.3,11.9-2.3c4,0,7.6,0.7,10.9,2.3c3.3,1.3,6,3.3,8.3,5.6s4,5,5.3,8c1.3,3,2,6,2,9v7.6H606z"/>
<path d="M1.3,702.7V695h609v7.6H1.3z"/>
<g>
	<defs>
		<path id="SVGID_1_" d="M332.9,492.1c0,24.2,52.4,20.2,45.4,28.5c-1,1.3-3.6,4.3-13.3,3.6c-7.6-0.3-26.9-10.6-33.5-11.3
			c-15.6-1.3-36.5,20.6-53,24.5c-13.3,2-19.9,0.7-19.2-3.6c1-6.3,31.8-5.3,35.5-26.9c-6.6,3.6-30.8,9.9-33.5,3.3
			c-5.6-13.6,39.5,0.7,30.8-28.8"/>
	</defs>
	<use xlink:href="#SVGID_1_"  overflow="visible" fill="#251D12"/>
	<clipPath id="SVGID_2_">
		<use xlink:href="#SVGID_1_"  overflow="visible"/>
	</clipPath>
</g>
<g>
	<defs>
		<path id="SVGID_3_" d="M312.3,417.9c13.9,0,28.5-7,27.8,15.6c-1,24.5,2,46.1,2.3,57c0,24.2,43.1,19.9,36.1,28.2
			c-1,1.3-3.6,4.3-13.3,3.6c-7.6-0.3-26.9-9.6-33.5-10.3c-15.6-1.3-36.5,19.6-53,23.9c-13.3,2-19.9,0.7-19.2-3.6
			c1-6.3,31.8-5.3,35.5-26.9c-6.6,3.6-30.8,9.9-33.5,3.3c-4.3-10.6,16.9-5.6,21.2-15.9c3-7.3,0.3-29.2,0.3-64.3
			C282.5,418.5,288.1,417.9,312.3,417.9L312.3,417.9z"/>
	</defs>
	<use xlink:href="#SVGID_3_"  overflow="visible" fill="#312716"/>
	<clipPath id="SVGID_4_">
		<use xlink:href="#SVGID_3_"  overflow="visible"/>
	</clipPath>
</g>
<path fill="#0DB591" d="M172.1,374.1c10.9,0,16.6,9.9,15.6,22.2c-1.3,16.6-6.3,22.5-14.9,22.5c-11.6-0.3-13.3-9.9-13.3-22.5
	C159.1,384.1,163.4,374.1,172.1,374.1L172.1,374.1z"/>
<path fill="#0DB591" d="M209.5,392c10.9,0,16.6,7.6,15.9,19.9c-1.3,16.6-6.3,25.2-14.9,24.9c-7,0-13.3-11.3-13.3-22.5
	C196.9,404.6,197.9,392,209.5,392L209.5,392z"/>
<path fill="#0DB591" d="M269.2,120.5c11.6,0,17.2-10.6,15.6-23.2c-2.3-16.9-8-23.2-16.9-23.2c-12.3,0.3-13.6,10.3-13.3,23.2
	C254.9,110.2,260.2,120.5,269.2,120.5L269.2,120.5z"/>
<path fill="#0DB591" d="M200.2,149.3c-11.9,0-17.9-10.6-16.9-23.5c1.3-17.2,7-23.5,15.9-23.2c12.6,0.3,14.3,10.3,14.6,23.2
	S209.5,149.3,200.2,149.3L200.2,149.3z"/>
<path fill="#0DB591" d="M118.4,298.9c-11.9,0-18.6-8.3-17.2-21.9c1.7-17.9,7.6-27.2,16.9-27.2c7.6,0,14.3,12.3,14.6,24.2
	C132.6,284.9,131.3,298.9,118.4,298.9L118.4,298.9z"/>
<path fill="#0DB591" d="M234.1,125.8c10.3,0,15.3-8.3,13.9-18.6c-1.7-13.6-7-18.6-14.9-18.6c-10.9,0.3-11.9,8.6-11.9,18.6
	C221.5,117.5,226.1,125.8,234.1,125.8L234.1,125.8z"/>
<path fill="#0DB591" d="M252,456.3c10.3,0,15.3-7.6,13.9-20.2c-2-16.6-7.3-25.2-15.3-24.9c-6.6,0-11.9,11.3-11.6,22.5
	C239.4,443.4,240.7,456.3,252,456.3L252,456.3z"/>
<path fill="#0DB591" d="M140.6,358.9c-8-0.3-12.6,4.6-11.9,12.6c1,10.9,4.6,16.9,10.9,17.2c5.3,0,9.9-7,9.9-14.6
	C150.2,367.8,149.5,359.2,140.6,358.9L140.6,358.9z"/>
<path fill="#0DB591" d="M450.2,148.3c10.6,0,16.2,9.6,15.9,20.9c-0.7,15.6-5.3,21.2-13.6,21.2c-11.3-0.3-12.9-9.6-13.6-21.2
	C437.9,158,441.9,148.3,450.2,148.3L450.2,148.3z"/>
<path fill="#0DB591" d="M304,76.1c10.3,0,15.9,7,15.3,18.2c-1,15.3-6,23.2-13.9,22.9c-6.6,0-12.9-10.3-13.3-20.6
	C292.1,87.7,292.7,76.1,304,76.1L304,76.1z"/>
<path fill="#0DB591" d="M282.5,219.3c11.9,0,17.2-10.9,15.6-23.9c-2.3-17.6-8-23.9-17.2-23.9c-12.3,0.3-13.6,10.6-13.3,23.9
	C268.2,208.7,273.2,219.3,282.5,219.3L282.5,219.3z"/>
<path fill="#0DB591" d="M242.7,176.5c10.6,0,16.2,7,15.3,18.2c-1,15.3-6.3,22.9-14.3,22.9c-6.6,0-12.9-10.3-13.3-20.6
	C230.4,188.1,231.4,176.5,242.7,176.5L242.7,176.5z"/>
<path fill="#0DB591" d="M480.1,227.3c9.9,0,14.6-7.3,12.9-18.9c-2.3-15.6-7.6-23.5-15.3-23.5c-6.3,0-11.3,10.6-10.6,21.2
	C467.5,215,469.4,227.3,480.1,227.3L480.1,227.3z"/>
<path fill="#0DB591" d="M419.7,160.3c-11.3-0.3-16.9-11.3-15.9-24.2c1.3-17.2,6.6-23.2,15.3-22.9c11.6,0.7,13.3,10.9,13.6,23.9
	C433,150.3,428.3,160.6,419.7,160.3L419.7,160.3z"/>
<path fill="#0DB591" d="M462.1,256.4c-9-0.3-13.3,5-12.3,13.6c1.3,11.9,6,17.9,12.9,18.2c5.6,0,10.3-7.6,10.3-15.6
	C472.8,266,471.4,256.8,462.1,256.4L462.1,256.4z"/>
<path fill="#0DB591" d="M347.8,263.7c-9-0.3-13.3,4.3-12.6,11.9c1.3,10.3,5.6,15.9,12.3,15.9c5.6,0,10.6-6.6,10.6-13.6
	C358.4,272,357.4,264.1,347.8,263.7L347.8,263.7z"/>
<path fill="#0DB591" d="M120,350.9c9.9,0.3,15.3-8.6,14.6-19.6c-1-14.9-5.6-20.6-13.3-20.9c-10.6-0.3-12.3,8.6-12.6,19.6
	C108.4,341.3,112.4,350.6,120,350.9L120,350.9z"/>
<path fill="#0DB591" d="M449.6,294.2c11.9,0,18.9,8.3,18.2,21.9c-0.7,18.2-6.3,27.8-15.6,27.5c-7.6,0-15.3-12.3-15.9-24.9
	C435.6,308.1,436.3,294.2,449.6,294.2L449.6,294.2z"/>
<path fill="#0DB591" d="M493.3,280c11.6,0,16.6-9.9,14.9-21.5c-2.7-15.9-8.6-21.5-17.2-21.5c-12.3,0.3-13.3,9.6-12.3,21.5
	C479.1,270.4,484.4,280,493.3,280L493.3,280z"/>
<path fill="#0DB591" d="M373.3,458c12.3-0.7,17.6-12.3,15.3-26.2c-3.3-18.6-9.6-25.2-19.2-24.5c-12.9,0.7-13.6,11.9-12.6,25.9
	C357.7,447.1,363.7,458.3,373.3,458L373.3,458z"/>
<path fill="#0DB591" d="M451.9,404.6c12.3-0.7,17.9-9.3,15.3-23.2c-3.3-18.2-10.3-27.5-19.6-27.2c-7.6,0.3-13.3,12.9-12.3,25.5
	C436,391,438.6,405.3,451.9,404.6L451.9,404.6z"/>
<path fill="#0DB591" d="M480.7,343.6c8.6-0.3,13.6,4.6,13.3,12.6c-0.3,10.9-4,16.9-10.6,16.9c-5.6,0-10.9-7-11.6-14.6
	C471.1,352.2,471.4,344,480.7,343.6L480.7,343.6z"/>
<path fill="#0DB591" d="M499.3,331c-10.6,0.3-16.9-8.6-16.6-19.6c0-14.9,4.6-20.6,12.9-20.6c11.3-0.3,13.6,8.6,14.6,19.6
	C511.2,321.7,507.6,330.7,499.3,331L499.3,331z"/>
<path fill="#0DB591" d="M418.7,431.1c-12.3,0.7-18.9-6.3-18.6-17.9c0.3-15.3,5.6-23.5,15.3-23.9c7.6-0.3,15.3,9.9,16.2,20.2
	C432,418.9,431.6,430.8,418.7,431.1L418.7,431.1z"/>
<path fill="#0DB591" d="M416.7,283.6c9,0,13.9,7.3,13.6,19.6c-0.3,16.2-4.6,24.5-11.3,24.2c-5.6,0-11.3-10.9-11.6-21.9
	C406.5,296.2,407.1,283.6,416.7,283.6L416.7,283.6z"/>
<path fill="#0DB591" d="M377.9,98.6c11.6,0,17.9,9.6,17.2,21.2c-1,15.6-6.3,21.5-15.3,21.2c-12.3-0.3-14.3-9.6-14.9-21.2
	C364.7,107.9,369,98.6,377.9,98.6L377.9,98.6z"/>
<path fill="#0DB591" d="M177.4,166.3c-10.9-1-17.2,9.9-16.9,23.9c0.3,18.6,5,25.9,13.6,26.5c11.6,0.7,13.9-10.3,14.9-24.2
	C189.6,178.5,185.7,166.9,177.4,166.3L177.4,166.3z"/>
<path fill="#0DB591" d="M135.3,156.3c-10.9,0-16.6,8.3-15.6,21.5c1.7,17.9,7.3,27.2,15.9,27.2c7,0,13.3-12.3,12.9-24.5
	C148.5,170.2,147.2,156.3,135.3,156.3L135.3,156.3z"/>
<path fill="#0DB591" d="M448.6,210c10.6,0,16.2,9,15.6,20.2c-0.7,14.9-5.3,20.2-13.6,20.2c-11.3-0.3-12.9-9-13.6-20.2
	C436.6,219,440.6,210,448.6,210L448.6,210z"/>
<path fill="#0DB591" d="M160.8,121.8c11.6,0,17.9,6.6,16.6,17.6c-1.3,14.6-7.3,22.2-16.2,22.2c-7.6,0-13.9-9.9-14.3-19.9
	C147.2,133.1,148.2,121.8,160.8,121.8L160.8,121.8z"/>
<path fill="#0DB591" d="M338.2,402.6c10.9,0,15.9-10.3,14.3-22.9c-2.3-16.9-7.6-22.9-15.9-22.9c-11.3,0.3-12.6,10.3-11.9,22.9
	C324.9,392.4,329.9,402.6,338.2,402.6L338.2,402.6z"/>
<path fill="#0DB591" d="M265.9,402.6c10.9,0,16.2-8,14.6-20.2c-2-16.9-7.6-25.5-15.9-25.2c-7,0-12.6,11.3-12.3,22.9
	C252.6,389.7,254.3,402.6,265.9,402.6L265.9,402.6z"/>
<path fill="#0DB591" d="M303,409.9c-9.6,0-14.6-9.3-13.9-20.6c1-14.9,5.3-20.6,12.6-20.6c10.3,0.3,11.6,9.3,11.9,20.6
	C314.3,400.6,310.6,409.9,303,409.9L303,409.9z"/>
<path fill="#0DB591" d="M379.6,393c-11.9,0-18.6-9-17.9-22.9c1-18.9,6.6-28.5,15.9-28.5c7.6,0,14.9,12.9,15.6,25.5
	C393.2,378.1,392.5,393,379.6,393L379.6,393z"/>
<path fill="#0DB591" d="M189.6,375.4c11.3,0,16.6-11.6,15.3-25.5c-2-18.6-7.3-25.5-15.9-25.2c-11.6,0.3-12.9,11.3-12.9,25.2
	C176.4,363.8,181,375.4,189.6,375.4L189.6,375.4z"/>
<path fill="#0DB591" d="M148.2,257.1c10.9,0,16.6-7.6,15.3-19.9c-1.7-16.6-7.3-24.9-15.6-24.9c-7,0-12.9,11.3-12.6,22.2
	C134.9,244.2,136.3,257.1,148.2,257.1L148.2,257.1z"/>
<path fill="#0DB591" d="M351.4,145c8.3,0,12.9,5,12.3,12.9c-0.7,10.6-4.6,16.2-11.3,15.9c-5.3,0-10.3-7.3-10.6-14.6
	C341.8,153,342.5,145,351.4,145L351.4,145z"/>
<path fill="#0DB591" d="M388.6,202.1c-10.6,0-16.2-10.6-15.6-23.2c0.7-16.9,5.6-23.2,13.6-22.9c10.9,0.3,12.9,10.3,13.6,22.9
	C400.5,191.8,396.8,202.1,388.6,202.1L388.6,202.1z"/>
<path fill="#0DB591" d="M244,168.9c-11.6,0-17.9-6.6-16.9-17.2c1.3-14.3,7-21.5,15.9-21.5c7.3,0,14.3,9.6,14.3,19.2
	C257.9,158,256.6,168.9,244,168.9L244,168.9z"/>
<path fill="#0DB591" d="M227.8,386.7c10.9,0.7,16.9-8,15.9-22.2c-1.3-18.9-6.6-28.8-15.3-28.8c-7-0.3-13.3,11.9-13.3,24.9
	C214.8,371.8,216.2,386.4,227.8,386.7L227.8,386.7z"/>
<path fill="#0DB591" d="M343.1,131.4c-10.9-0.3-16.9-9-15.6-21.9c1.7-17.6,7-26.2,15.6-25.9c7,0.3,13.3,12.6,13.3,24.2
	C356.4,118.5,355.1,132.1,343.1,131.4L343.1,131.4z"/>
<path fill="#0DB591" d="M350.8,297.5c-11.9,0-17.6,11.3-15.9,24.5c2.3,18.2,8.3,24.9,17.6,24.9c12.6-0.3,13.9-11.3,13.3-24.9
	C365.3,308.5,359.7,297.5,350.8,297.5L350.8,297.5z"/>
<path fill="#0DB591" d="M420.4,227.9c11.9,0,18.6,10.9,17.9,24.2c-0.7,17.9-6.3,24.5-15.6,24.2c-12.6-0.3-14.9-10.9-15.6-24.2
	C406.8,238.9,411.4,227.9,420.4,227.9L420.4,227.9z"/>
<path fill="#0DB591" d="M386.2,289.6c-10.6,0-15.6,9-13.9,20.2c2,14.9,7.6,20.2,15.6,20.2c11.3-0.3,12.3-9,11.6-20.2
	C399.5,298.5,394.5,289.6,386.2,289.6L386.2,289.6z"/>
<path fill="#0DB591" d="M315,349.9c-10.9,0-16.6-6.3-15.9-16.6c1-13.6,6.3-20.9,14.6-20.6c7,0,13.3,9.3,13.6,18.6
	C327.5,339.3,326.6,349.9,315,349.9L315,349.9z"/>
<path fill="#0DB591" d="M184.7,225.9c9.9,0.3,14.9,10.3,13.6,22.2c-1.7,15.9-6.6,21.5-14.3,20.9c-10.6-0.7-11.6-10.3-11.6-22.2
	C172.7,234.9,177,225.6,184.7,225.9L184.7,225.9z"/>
<path fill="#0DB591" d="M217.2,325.7c-9.3,0-14.3-6.6-13.3-14.9c1-10.9,5.6-14.9,12.6-14.9c9.9,0,11.3,6.6,11.6,14.9
	C228.4,319.1,224.4,325.7,217.2,325.7L217.2,325.7z"/>
<path fill="#0DB591" d="M278.8,299.2c11.3,0.7,17.2,9.3,15.9,23.2c-1.7,18.6-7.3,28.2-16.2,27.5c-7.3-0.3-13.6-13.3-13.3-26.2
	C265.2,313.1,266.5,298.9,278.8,299.2L278.8,299.2z"/>
<path fill="#0DB591" d="M152.5,267c-8.6-0.3-12.9,4.6-12.3,12.6c1,10.9,5,16.9,11.6,17.2c5.6,0,10.3-7,10.6-14.6
	C162.4,276,161.5,267.4,152.5,267L152.5,267z"/>
<path fill="#0DB591" d="M112.7,243.5c10.6,0.3,15.9-8.6,15.3-19.6c-1-14.9-6-20.6-13.9-20.6c-10.9-0.3-12.6,8.6-12.9,19.6
	C100.8,233.9,104.8,243.2,112.7,243.5L112.7,243.5z"/>
<path fill="#0DB591" d="M153.5,347.6c10.9,0.7,16.9-6.3,15.9-17.9c-1.3-15.3-6.6-23.5-14.9-23.9c-7-0.3-13.3,9.6-13.6,20.2
	C140.9,335.3,141.9,347.3,153.5,347.6L153.5,347.6z"/>
<path fill="#0DB591" d="M411.4,377.1c10.9,0,15.9-10.3,13.9-22.9c-2.3-16.6-8-22.9-16.2-22.5c-11.3,0.3-12.3,9.9-11.9,22.5
	C398.2,366.8,403.1,377.1,411.4,377.1L411.4,377.1z"/>
<path fill="#0DB591" d="M421.4,217c10.6,0,15.6-7.3,13.9-19.2c-2.3-15.9-8-24.2-16.2-23.9c-6.6,0-11.9,10.9-11.6,21.5
	C408.1,204.4,409.8,217,421.4,217L421.4,217z"/>
<path fill="#0DB591" d="M207.2,154.6c9.9,0,15.3,7.3,14.3,19.2c-1,15.9-6,24.2-13.6,23.9c-6.3,0-11.9-10.9-12.3-21.5
	C195.6,166.9,196.3,154.6,207.2,154.6L207.2,154.6z"/>
<path fill="#0DB591" d="M317.9,129.1C307,129.5,302,140.7,304,154c3,17.9,8.6,24.2,17.2,23.5c11.6-0.7,12.6-11.6,11.6-24.9
	C331.9,139.4,326.6,128.8,317.9,129.1L317.9,129.1z"/>
<path fill="#0DB591" d="M187,314.4c-8,0.3-12.6-5.6-11.9-15.9c0.7-13.6,4.3-20.9,10.3-21.2c5-0.3,9.9,8.6,10.3,17.9
	C196.3,303.2,195.6,314.1,187,314.4L187,314.4z"/>
<path fill="#0DB591" d="M278.5,126.1c11.3,0,17.2,8.6,16.2,18.9c-1.3,13.9-6.6,19.2-15.3,18.9c-11.9-0.3-13.6-8.6-13.9-18.9
	C265.2,134.8,269.9,126.1,278.5,126.1L278.5,126.1z"/>
<path fill="#0DB591" d="M247,339c-9,0.3-13.9-8-13.6-18.2c0.3-13.9,4.6-18.9,11.6-19.2c9.6-0.3,11.3,8,11.9,18.2
	C257.3,330,254,338.6,247,339L247,339z"/>
<path fill="#0DB591" d="M351.4,227.6c10.6,0,15.6-9.9,13.9-21.9c-2.3-15.9-7.6-21.9-15.6-21.5c-11.3,0.3-12.3,9.6-11.6,21.5
	C338.5,218,343.1,227.6,351.4,227.6L351.4,227.6z"/>
<path fill="#0DB591" d="M250.3,259.7c10.6,0,15.9-6.3,14.6-16.2c-2-13.3-7.3-20.2-15.6-20.2c-6.6,0-12.3,9-12.3,18.2
	C237.4,249.5,239,259.7,250.3,259.7L250.3,259.7z"/>
<path fill="#0DB591" d="M284.1,259.7c-9.3,0-14.3-7.6-13.6-16.9c1-12.3,5.3-16.9,12.6-16.6c9.9,0,11.3,7.6,11.6,16.6
	C295.4,252.4,291.4,259.7,284.1,259.7L284.1,259.7z"/>
<path fill="#0DB591" d="M215.2,288.3c10.9,0.3,16.6-6,15.9-16.2c-1.3-13.9-6.6-21.2-14.9-21.2c-7,0-13.3,9-13.3,18.2
	C202.6,277.3,203.6,287.9,215.2,288.3L215.2,288.3z"/>
<path fill="#0DB591" d="M386.9,245.5c-9.3,0-14.3-8.3-13.6-18.2c0.7-13.6,5-18.2,12.3-18.2c9.6,0.3,11.3,8.3,11.9,18.2
	C397.5,237.2,394.2,245.5,386.9,245.5L386.9,245.5z"/>
<path fill="#0DB591" d="M218.5,240.5c-8,0.3-12.3-5.6-11.9-15.6c0.3-13.6,4-20.6,10.3-20.9c5-0.3,9.9,8.6,10.3,17.6
	C227.4,229.6,227.1,240.2,218.5,240.5L218.5,240.5z"/>
<path fill="#0DB591" d="M319.6,220.3c-9,0.3-13.9-7.6-13.6-17.6c0.3-13.3,4.3-18.6,11.3-18.6c9.3-0.3,11.3,7.6,11.9,17.6
	C329.5,211.7,326.6,220,319.6,220.3L319.6,220.3z"/>
<path fill="#0DB591" d="M313.6,226.3c10.3,0,15.6,7.3,14.9,19.2c-1,15.9-5.6,24.2-13.6,24.2c-6.6,0-12.6-10.9-12.9-21.5
	C302,238.5,302.7,226.3,313.6,226.3L313.6,226.3z"/>
<path fill="#0DB591" d="M285.8,295.2c-9.3,0-14.3-6.6-13.6-14.9c1-10.9,5.3-14.9,12.6-14.9c9.9,0,11.3,6.6,11.6,14.9
	C296.7,288.6,293.1,295.2,285.8,295.2L285.8,295.2z"/>
<path fill="#0DB591" d="M254.3,295.9c-9,0.3-13.9-6-13.6-13.6c0.7-10.3,4.6-14.3,11.6-14.3c9.6-0.3,11.3,6,11.6,13.6
	C264.2,289.6,260.9,295.9,254.3,295.9L254.3,295.9z"/>
<path fill="#0DB591" d="M366.7,268c-1.3-12.6,3.3-19.6,10.3-18.6c9.3,1,13.3,7,14.3,16.9c1.3,13.6-3.6,15.6-10.6,16.2
	C373.6,282.6,367.7,277.6,366.7,268L366.7,268z"/>
<path fill="#0DB591" d="M349.4,258.1c-7,0.3-10.9-3.6-10.6-10.3c0.3-9,3.3-13.6,9-13.6c4.3,0,8.6,5.6,9.3,11.6
	C357.1,250.8,356.7,257.8,349.4,258.1L349.4,258.1z"/>
<path fill="#0DB591" d="M316.6,304.5c-9,0.3-13.9-6-13.6-13.6c0.3-10.3,4.6-14.3,11.3-14.6c9.6-0.3,11.3,6,11.9,13.6
	C326.9,297.9,323.6,304.2,316.6,304.5L316.6,304.5z"/>
<g>
	<path d="M177.6,662.5c0,3.6-0.7,7-2,10.1c-1.4,3.1-3.2,5.8-5.5,8.2c-2.3,2.3-5.1,4.2-8.2,5.5c-3.1,1.4-6.4,2-10,2
		c-3.5,0-6.9-0.7-10-2c-3.1-1.4-5.8-3.2-8.2-5.5c-2.3-2.3-4.2-5.1-5.5-8.2c-1.4-3.1-2-6.5-2-10.1v-86.1H142v84.5
		c0,4,0.9,6.9,2.8,8.7c1.9,1.9,4.2,2.8,7,2.8s5.1-0.9,7-2.8c1.9-1.9,2.8-4.8,2.8-8.7v-84.5h15.9V662.5z"/>
</g>
</svg>
